HIERARCHY
ROOT Root
{
  OFFSET 0.0 0.0 0.0
  CHANNELS 6 Xposition Yposition Zposition Zrotation Yrotation Xrotation
  JOINT Hips
  {
    OFFSET 0.0 100.0 0.0
    CHANNELS 6 Xposition Yposition Zposition Zrotation Yrotation Xrotation
    JOINT Spine1
    {
      OFFSET -0.013727 5.003763 -0.053727
      CHANNELS 3 Zrotation Yrotation Xrotation
      JOINT Spine2
      {
        OFFSET -0.0 7.125301 -0.029825
        CHANNELS 3 Zrotation Yrotation Xrotation
        JOINT Chest
        {
          OFFSET -1e-06 7.550063 -0.815971
          CHANNELS 3 Zrotation Yrotation Xrotation
          JOINT Neck1
          {
            OFFSET -0.181677 26.311295 -0.553348
            CHANNELS 3 Zrotation Yrotation Xrotation
            JOINT Neck2
            {
              OFFSET -3e-06 7.709397 2.302585
              CHANNELS 3 Zrotation Yrotation Xrotation
              JOINT Head
              {
                OFFSET -5e-06 6.128916 1.953709
                CHANNELS 3 Zrotation Yrotation Xrotation
                JOINT HeadEnd
                {
                  OFFSET 0.003598 16.065403 -1.835379
                  CHANNELS 3 Zrotation Yrotation Xrotation
                }
                JOINT Jaw
                {
                  OFFSET 0.002637 0.475592 3.094941
                  CHANNELS 3 Zrotation Yrotation Xrotation
                }
                JOINT LeftEye
                {
                  OFFSET 3.206381 5.380205 7.586883
                  CHANNELS 3 Zrotation Yrotation Xrotation
                }
                JOINT RightEye
                {
                  OFFSET -3.22244 5.361869 7.558234
                  CHANNELS 3 Zrotation Yrotation Xrotation
                }
              }
            }
          }
          JOINT LeftShoulder
          {
            OFFSET 1.621652 23.237164 5.113413
            CHANNELS 3 Zrotation Yrotation Xrotation
            JOINT LeftArm
            {
              OFFSET 14.919846 2e-06 -5.502326
              CHANNELS 3 Zrotation Yrotation Xrotation
              JOINT LeftForeArm
              {
                OFFSET 28.739307 0.0 -0.002588
                CHANNELS 3 Zrotation Yrotation Xrotation
                JOINT LeftHand
                {
                  OFFSET 27.093981 -1e-06 0.002609
                  CHANNELS 3 Zrotation Yrotation Xrotation
                  JOINT LeftHandThumb1
                  {
                    OFFSET 2.276482 -1.392045 3.191413
                    CHANNELS 3 Zrotation Yrotation Xrotation
                    JOINT LeftHandThumb2
                    {
                      OFFSET 4.012836 -1.828127 1.641654
                      CHANNELS 3 Zrotation Yrotation Xrotation
                      JOINT LeftHandThumb3
                      {
                        OFFSET 2.798515 0.0 -3e-06
                        CHANNELS 3 Zrotation Yrotation Xrotation
                        JOINT LeftHandThumbEnd
                        {
                          OFFSET 3.180793 -4e-06 4e-06
                          CHANNELS 3 Zrotation Yrotation Xrotation
                        }
                      }
                    }
                  }
                  JOINT LeftHandIndex1
                  {
                    OFFSET 3.247555 -0.531998 2.296169
                    CHANNELS 3 Zrotation Yrotation Xrotation
                    JOINT LeftHandIndex2
                    {
                      OFFSET 6.364578 0.01206 0.1786
                      CHANNELS 3 Zrotation Yrotation Xrotation
                      JOINT LeftHandIndex3
                      {
                        OFFSET 3.662364 0.0 0.0
                        CHANNELS 3 Zrotation Yrotation Xrotation
                        JOINT LeftHandIndex4
                        {
                          OFFSET 2.329242 4e-06 4e-06
                          CHANNELS 3 Zrotation Yrotation Xrotation
                          JOINT LeftHandIndexEnd
                          {
                            OFFSET 2.759615 -0.180537 -0.113024
                            CHANNELS 3 Zrotation Yrotation Xrotation
                          }
                        }
                      }
                    }
                  }
                  JOINT LeftHandMiddle1
                  {
                    OFFSET 3.163495 0.240981 1.000332
                    CHANNELS 3 Zrotation Yrotation Xrotation
                    JOINT LeftHandMiddle2
                    {
                      OFFSET 6.19078 -0.259278 -1.002548
                      CHANNELS 3 Zrotation Yrotation Xrotation
                      JOINT LeftHandMiddle3
                      {
                        OFFSET 4.35652 -4e-06 -1e-06
                        CHANNELS 3 Zrotation Yrotation Xrotation
                        JOINT LeftHandMiddle4
                        {
                          OFFSET 2.996877 -8e-06 0.0
                          CHANNELS 3 Zrotation Yrotation Xrotation
                          JOINT LeftHandMiddleEnd
                          {
                            OFFSET 2.304287 -0.294569 -0.031741
                            CHANNELS 3 Zrotation Yrotation Xrotation
                          }
                        }
                      }
                    }
                  }
                  JOINT LeftHandRing1
                  {
                    OFFSET 2.882643 -0.053652 -0.322543
                    CHANNELS 3 Zrotation Yrotation Xrotation
                    JOINT LeftHandRing2
                    {
                      OFFSET 5.854541 -0.486202 -1.373841
                      CHANNELS 3 Zrotation Yrotation Xrotation
                      JOINT LeftHandRing3
                      {
                        OFFSET 4.350578 0.0 3e-06
                        CHANNELS 3 Zrotation Yrotation Xrotation
                        JOINT LeftHandRing4
                        {
                          OFFSET 2.651321 7e-06 2e-06
                          CHANNELS 3 Zrotation Yrotation Xrotation
                          JOINT LeftHandRingEnd
                          {
                            OFFSET 1.936105 0.077687 -7.1e-05
                            CHANNELS 3 Zrotation Yrotation Xrotation
                          }
                        }
                      }
                    }
                  }
                  JOINT LeftHandPinky1
                  {
                    OFFSET 2.8655 -0.310005 -1.600378
                    CHANNELS 3 Zrotation Yrotation Xrotation
                    JOINT LeftHandPinky2
                    {
                      OFFSET 5.087849 -1.331141 -1.77123
                      CHANNELS 3 Zrotation Yrotation Xrotation
                      JOINT LeftHandPinky3
                      {
                        OFFSET 3.070974 4e-06 0.0
                        CHANNELS 3 Zrotation Yrotation Xrotation
                        JOINT LeftHandPinky4
                        {
                          OFFSET 1.549672 0.0 1e-06
                          CHANNELS 3 Zrotation Yrotation Xrotation
                          JOINT LeftHandPinkyEnd
                          {
                            OFFSET 1.944893 -0.157802 0.057219
                            CHANNELS 3 Zrotation Yrotation Xrotation
                          }
                        }
                      }
                    }
                  }
                }
              }
            }
          }
          JOINT RightShoulder
          {
            OFFSET -1.380118 23.180309 5.214158
            CHANNELS 3 Zrotation Yrotation Xrotation
            JOINT RightArm
            {
              OFFSET -15.037196 1.2e-05 -5.545604
              CHANNELS 3 Zrotation Yrotation Xrotation
              JOINT RightForeArm
              {
                OFFSET -28.736639 2e-06 -0.002597
                CHANNELS 3 Zrotation Yrotation Xrotation
                JOINT RightHand
                {
                  OFFSET -27.133619 -0.0 0.002613
                  CHANNELS 3 Zrotation Yrotation Xrotation
                  JOINT RightHandThumb1
                  {
                    OFFSET -2.274032 -1.383988 3.163127
                    CHANNELS 3 Zrotation Yrotation Xrotation
                    JOINT RightHandThumb2
                    {
                      OFFSET -4.011429 -1.827466 1.640914
                      CHANNELS 3 Zrotation Yrotation Xrotation
                      JOINT RightHandThumb3
                      {
                        OFFSET -2.794935 -4e-06 -3e-06
                        CHANNELS 3 Zrotation Yrotation Xrotation
                        JOINT RightHandThumbEnd
                        {
                          OFFSET -3.183852 4e-06 1e-06
                          CHANNELS 3 Zrotation Yrotation Xrotation
                        }
                      }
                    }
                  }
                  JOINT RightHandIndex1
                  {
                    OFFSET -3.253266 -0.520057 2.282866
                    CHANNELS 3 Zrotation Yrotation Xrotation
                    JOINT RightHandIndex2
                    {
                      OFFSET -6.341917 0.012471 0.178266
                      CHANNELS 3 Zrotation Yrotation Xrotation
                      JOINT RightHandIndex3
                      {
                        OFFSET -3.654871 -8e-06 -0.0
                        CHANNELS 3 Zrotation Yrotation Xrotation
                        JOINT RightHandIndex4
                        {
                          OFFSET -2.327586 0.0 1e-06
                          CHANNELS 3 Zrotation Yrotation Xrotation
                          JOINT RightHandIndexEnd
                          {
                            OFFSET -2.76179 -0.180656 -0.113078
                            CHANNELS 3 Zrotation Yrotation Xrotation
                          }
                        }
                      }
                    }
                  }
                  JOINT RightHandMiddle1
                  {
                    OFFSET -3.168106 0.246593 1.00103
                    CHANNELS 3 Zrotation Yrotation Xrotation
                    JOINT RightHandMiddle2
                    {
                      OFFSET -6.180828 -0.258836 -1.000895
                      CHANNELS 3 Zrotation Yrotation Xrotation
                      JOINT RightHandMiddle3
                      {
                        OFFSET -4.348901 0.0 -0.0
                        CHANNELS 3 Zrotation Yrotation Xrotation
                        JOINT RightHandMiddle4
                        {
                          OFFSET -3.00024 -4e-06 -2e-06
                          CHANNELS 3 Zrotation Yrotation Xrotation
                          JOINT RightHandMiddleEnd
                          {
                            OFFSET -2.30252 -0.29437 -0.031706
                            CHANNELS 3 Zrotation Yrotation Xrotation
                          }
                        }
                      }
                    }
                  }
                  JOINT RightHandRing1
                  {
                    OFFSET -2.88569 -0.067952 -0.308858
                    CHANNELS 3 Zrotation Yrotation Xrotation
                    JOINT RightHandRing2
                    {
                      OFFSET -5.854198 -0.48613 -1.373731
                      CHANNELS 3 Zrotation Yrotation Xrotation
                      JOINT RightHandRing3
                      {
                        OFFSET -4.33881 -4e-06 -0.0
                        CHANNELS 3 Zrotation Yrotation Xrotation
                        JOINT RightHandRing4
                        {
                          OFFSET -2.654903 -4e-06 4e-06
                          CHANNELS 3 Zrotation Yrotation Xrotation
                          JOINT RightHandRingEnd
                          {
                            OFFSET -1.933568 0.077527 -5.2e-05
                            CHANNELS 3 Zrotation Yrotation Xrotation
                          }
                        }
                      }
                    }
                  }
                  JOINT RightHandPinky1
                  {
                    OFFSET -2.866425 -0.342796 -1.584145
                    CHANNELS 3 Zrotation Yrotation Xrotation
                    JOINT RightHandPinky2
                    {
                      OFFSET -5.091371 -1.332055 -1.772385
                      CHANNELS 3 Zrotation Yrotation Xrotation
                      JOINT RightHandPinky3
                      {
                        OFFSET -3.062664 -4e-06 1e-06
                        CHANNELS 3 Zrotation Yrotation Xrotation
                        JOINT RightHandPinky4
                        {
                          OFFSET -1.546529 4e-06 -2e-06
                          CHANNELS 3 Zrotation Yrotation Xrotation
                          JOINT RightHandPinkyEnd
                          {
                            OFFSET -1.945119 -0.157718 0.057211
                            CHANNELS 3 Zrotation Yrotation Xrotation
                          }
                        }
                      }
                    }
                  }
                }
              }
            }
          }
        }
      }
    }
    JOINT LeftLeg
    {
      OFFSET 10.043214 -8.434526 2.595655
      CHANNELS 3 Zrotation Yrotation Xrotation
      JOINT LeftShin
      {
        OFFSET -1e-06 -43.221752 -0.802913
        CHANNELS 3 Zrotation Yrotation Xrotation
        JOINT LeftFoot
        {
          OFFSET 1e-06 -42.155094 -3.481523
          CHANNELS 3 Zrotation Yrotation Xrotation
          JOINT LeftToeBase
          {
            OFFSET 0.0 -5.059472 13.231529
            CHANNELS 3 Zrotation Yrotation Xrotation
            JOINT LeftToeEnd
            {
              OFFSET -0.009607 -1.647619 6.513017
              CHANNELS 3 Zrotation Yrotation Xrotation
            }
          }
        }
      }
    }
    JOINT RightLeg
    {
      OFFSET -10.047278 -8.29526 2.620317
      CHANNELS 3 Zrotation Yrotation Xrotation
      JOINT RightShin
      {
        OFFSET 1e-06 -43.362206 -0.805556
        CHANNELS 3 Zrotation Yrotation Xrotation
        JOINT RightFoot
        {
          OFFSET 2e-06 -42.117393 -3.478398
          CHANNELS 3 Zrotation Yrotation Xrotation
          JOINT RightToeBase
          {
            OFFSET -0.0 -5.079609 13.284196
            CHANNELS 3 Zrotation Yrotation Xrotation
            JOINT RightToeEnd
            {
              OFFSET 0.009532 -1.634378 6.460591
              CHANNELS 3 Zrotation Yrotation Xrotation
            }
          }
        }
      }
    }
  }
}
MOTION
Frames: 4
Frame Time: 0.03333333333333333
0.0 0.0 0.0 0.0 -0.0 0.0 0.399509 99.995026 3.512034 1.236178 0.24196 0.039347 0.039289 -0.244908 -2.231792 -0.471703 -0.641688 -5.497365 -1.253995 -2.346679 10.228027 1.596946 2.126519 -0.671563 -0.117886 2.28671 -3.439765 -3.385004 3.741845 -2.098572 7.7e-05 -2.2e-05 6e-06 0.032243 -0.056545 0.009655 0.797823 -3.778901 -10.634895 -0.737673 3.670436 -10.593655 -20.721924 -5.7299 15.454553 -48.567387 -5.006528 12.273676 -0.408968 -34.21162 0.311324 -5.84384 4.874805 4.619029 -5.882107 9.861286 0.702592 -10.936873 -0.360575 7.156204 0.0 8.774826 -1e-06 -16.525328 18.147821 5.921826 -1.844032 2.498505 -2.507278 -10.163603 4.678946 4.621108 -20.976027 -3e-06 2e-06 -21.22629 2.451697 -3.593999 1e-06 -5e-06 1e-06 -1.362681 2.240798 -0.746324 -21.334917 0.584908 3.008322 -13.821215 -2e-06 1e-06 -23.887173 -0.249079 -0.839482 -60.585239 2.364391 -1.173528 -0.294024 1.679688 0.833255 -14.21821 0.093214 1.30058 -34.212051 -0.287566 0.967167 -20.033213 0.964537 1.212843 0.0 0.0 -0.0 -3.440389 0.788233 0.501656 -15.928189 -3.16731 2.999708 -6.338827 -1e-06 -0.0 -18.123449 3.648184 -4.90567 -3e-06 1e-06 1e-06 16.612951 6.690481 15.185232 48.672455 -2.346449 20.880182 0.267581 62.400616 0.798347 3.161499 -14.845155 7.10928 2.243543 -5.255039 -3.180157 14.282898 -0.826596 6.952503 -2e-06 -12.69061 1e-06 16.124895 -17.601936 2.605949 1.665666 -1.955922 -2.878299 4.727802 -4.170589 4.993925 11.020534 3e-06 1e-06 12.109059 -3.735717 -2.866786 0.0 0.0 1e-06 1.291986 -1.928549 -1.49809 14.800138 0.567467 3.865609 14.24258 -1.341738 -6.660661 19.631981 0.143927 -0.648248 50.004341 -0.662469 -6.489923 0.353029 -1.511151 -0.031939 20.222803 3.684309 2.316631 18.787287 5e-06 -2e-06 10.751636 -0.479869 1.397905 1e-06 2e-06 1e-06 3.273809 0.305948 -0.580112 21.486826 11.830379 2.266132 8.16293 2e-06 -2e-06 18.399092 -3.798986 -4.94058 4e-06 -0.0 -0.0 4.945718 14.171832 2.333225 -0.01528 -0.095535 2.382372 -6.72942 -5.787446 -2.821715 1.642406 -1.728574 -0.568035 -0.0 -0.0 2e-06 -4.704715 -4.393063 -5.020647 -0.0793 -0.011605 12.829676 6.296251 -8.174225 -7.866309 -1.411616 1.249867 -0.443436 0.0 -0.0 -1e-06 
0.0 0.0 0.0 0.0 -0.0 0.0 0.375658 100.014793 3.529734 1.237605 0.217738 0.097518 0.049634 -0.251996 -2.211451 -0.468388 -0.606873 -5.496727 -1.280722 -2.397966 10.193763 1.599432 2.179061 -0.750663 -0.113486 2.313303 -3.413861 -3.454514 3.725556 -2.215599 7.7e-05 -2.3e-05 6e-06 0.03177 -0.023379 0.011661 0.793994 -3.744149 -10.605856 -0.734952 3.7022 -10.567924 -20.7638 -5.73631 15.503963 -48.536003 -4.887817 12.256124 -0.515727 -34.381268 0.309588 -6.140703 5.002259 4.733639 -5.882109 9.861287 0.702591 -10.936875 -0.360574 7.156208 1e-06 8.774828 -0.0 -16.527382 18.123987 5.903315 -1.844033 2.498504 -2.507279 -10.163603 4.678946 4.621108 -20.976032 -4e-06 1e-06 -21.22629 2.451695 -3.594002 -0.0 -5e-06 0.0 -1.362682 2.240798 -0.746325 -21.334921 0.584909 3.008322 -13.821219 -4e-06 -0.0 -23.887178 -0.249082 -0.839484 -60.590923 2.362508 -1.097982 -0.294024 1.679687 0.833255 -14.218214 0.093215 1.300579 -34.212063 -0.287565 0.967164 -20.03322 0.964537 1.212842 0.0 -0.0 1e-06 -3.44039 0.788233 0.501656 -15.928189 -3.167309 2.999707 -6.338828 -0.0 -1e-06 -18.123455 3.648184 -4.905671 -3e-06 1e-06 1e-06 16.507652 6.599255 15.247335 48.846218 -2.587325 20.884005 0.333687 62.904083 0.827889 3.335202 -14.847358 6.923503 2.243543 -5.255039 -3.180161 14.282898 -0.826595 6.952504 -3e-06 -12.690609 2e-06 16.117796 -17.594545 2.596667 1.665668 -1.955922 -2.8783 4.727802 -4.170591 4.993926 11.020535 3e-06 -1e-06 12.109059 -3.735718 -2.866786 1e-06 0.0 1e-06 1.291986 -1.92855 -1.498087 14.800136 0.567468 3.86561 14.24258 -1.341736 -6.660661 19.631981 0.143928 -0.648246 50.100544 -0.679069 -6.490897 0.353029 -1.511152 -0.03194 20.222803 3.684312 2.316631 18.787287 7e-06 -1e-06 10.751634 -0.479869 1.397906 0.0 0.0 1e-06 3.273809 0.305947 -0.580109 21.486824 11.830381 2.266133 8.16293 1e-06 -2e-06 18.399092 -3.798985 -4.940577 3e-06 -1e-06 -0.0 4.950598 14.165202 2.287796 -0.028329 -0.126429 2.364069 -6.794621 -5.733593 -2.728136 1.646397 -1.745195 -0.59406 0.0 -0.0 2e-06 -4.672657 -4.258623 -5.006116 -0.080555 0.006934 12.681912 6.269349 -8.343678 -7.809154 -1.415008 1.244162 -0.427547 -0.0 -0.0 -1e-06 
0.0 0.0 0.0 0.0 -0.0 0.0 0.362139 100.021111 3.553147 1.237592 0.16064 0.181689 0.069447 -0.263139 -2.21036 -0.46665 -0.606529 -5.513495 -1.293751 -2.416894 10.196686 1.62841 2.246277 -0.843361 -0.119567 2.313978 -3.428788 -3.548497 3.747024 -2.248868 7.7e-05 -2.2e-05 6e-06 0.033274 -0.009532 0.013404 0.792016 -3.727818 -10.596408 -0.730092 3.713367 -10.55753 -20.806871 -5.74871 15.525285 -48.4963 -4.712077 12.345163 -0.634724 -34.614689 0.335651 -6.512815 5.251732 4.715798 -5.88211 9.861291 0.702591 -10.936878 -0.360575 7.156207 1e-06 8.774831 1e-06 -16.565042 18.138508 5.887786 -1.844033 2.498506 -2.507278 -10.163605 4.678948 4.621111 -20.976038 -4e-06 1e-06 -21.226299 2.451697 -3.594002 -0.0 -5e-06 -0.0 -1.362682 2.240799 -0.746324 -21.334929 0.584911 3.008325 -13.821222 -2e-06 1e-06 -23.887188 -0.24908 -0.839485 -60.5896 2.395486 -1.116827 -0.294024 1.679688 0.833256 -14.218217 0.093215 1.30058 -34.212074 -0.287566 0.967169 -20.03323 0.964536 1.212844 -1e-06 -1e-06 0.0 -3.440391 0.788233 0.501656 -15.928198 -3.167311 2.999709 -6.33883 -0.0 -1e-06 -18.123459 3.648184 -4.905675 -3e-06 1e-06 1e-06 16.35862 6.527351 15.277501 49.015434 -2.993922 20.980013 0.355511 63.743656 0.823727 3.509038 -14.978517 6.69713 2.243544 -5.255038 -3.180159 14.282898 -0.826594 6.952504 -3e-06 -12.690612 1e-06 16.126047 -17.573196 2.593502 1.665668 -1.955922 -2.878301 4.727802 -4.17059 4.993924 11.020534 3e-06 -3e-06 12.109058 -3.735717 -2.866787 1e-06 0.0 1e-06 1.291987 -1.92855 -1.49809 14.800136 0.567468 3.865608 14.242584 -1.341736 -6.660661 19.631979 0.143927 -0.648246 50.1339 -0.699956 -6.505844 0.353028 -1.511152 -0.03194 20.222803 3.684313 2.316628 18.787287 7e-06 -1e-06 10.751636 -0.479867 1.397906 2e-06 1e-06 -0.0 3.273808 0.305948 -0.580113 21.486828 11.830383 2.266131 8.16293 3e-06 -2e-06 18.399096 -3.798984 -4.94058 3e-06 -0.0 -0.0 4.950443 14.203759 2.193724 -0.029277 -0.137386 2.385326 -6.805385 -5.710068 -2.711096 1.650675 -1.74419 -0.581137 0.0 -0.0 2e-06 -4.653052 -4.152135 -5.086798 -0.076087 0.009489 12.666591 6.281684 -8.478102 -7.814762 -1.415178 1.248191 -0.376884 0.0 -0.0 -1e-06 
0.0 0.0 0.0 0.0 -0.0 0.0 0.315693 100.029411 3.581314 1.222605 0.09015 0.276711 0.094524 -0.275156 -2.210365 -0.46068 -0.62673 -5.53291 -1.300347 -2.419708 10.198887 1.669778 2.278714 -0.935015 -0.119603 2.339139 -3.456491 -3.644656 3.776127 -2.290431 7.7e-05 -2.3e-05 6e-06 0.03421 -0.00349 0.013987 0.791068 -3.720024 -10.599884 -0.727348 3.717372 -10.560152 -20.854055 -5.749642 15.564072 -48.453083 -4.586613 12.619017 -0.700757 -34.824917 0.365515 -6.886946 5.527958 4.808856 -5.882114 9.861296 0.702591 -10.936887 -0.360574 7.156213 1e-06 8.774835 -2e-06 -16.601648 18.134623 5.8759 -1.844035 2.498507 -2.507278 -10.163612 4.67895 4.621114 -20.976053 -4e-06 0.0 -21.226315 2.451699 -3.594004 1e-06 -5e-06 0.0 -1.362682 2.240799 -0.746325 -21.334942 0.58491 3.008324 -13.821232 -4e-06 0.0 -23.887201 -0.249078 -0.839482 -60.58733 2.413128 -1.133751 -0.294026 1.679689 0.833259 -14.218229 0.093216 1.300584 -34.212097 -0.287562 0.967172 -20.033241 0.964538 1.212844 -1e-06 -1e-06 -1e-06 -3.440393 0.788234 0.501655 -15.928208 -3.167312 2.999711 -6.338835 -1e-06 1e-06 -18.123472 3.648186 -4.905674 -3e-06 1e-06 -0.0 16.16938 6.441751 15.300349 49.192616 -3.606064 21.166782 0.299154 64.991318 0.767327 3.806636 -15.157296 6.374039 2.243544 -5.255041 -3.180161 14.2829 -0.826594 6.952504 -3e-06 -12.690612 2e-06 16.123518 -17.556484 2.612177 1.665668 -1.955924 -2.8783 4.727801 -4.17059 4.993927 11.020535 3e-06 -3e-06 12.10906 -3.735717 -2.866787 0.0 -0.0 1e-06 1.291988 -1.92855 -1.498088 14.800139 0.567468 3.865606 14.242584 -1.341735 -6.660665 19.631979 0.14393 -0.64825 50.131603 -0.730983 -6.503804 0.353028 -1.511152 -0.031942 20.222803 3.684312 2.316625 18.787287 7e-06 -4e-06 10.751634 -0.479866 1.397906 2e-06 1e-06 -1e-06 3.27381 0.305947 -0.580113 21.486828 11.830386 2.266128 8.16293 2e-06 -4e-06 18.399092 -3.798983 -4.940582 3e-06 -0.0 -0.0 4.976177 14.302618 2.103283 -0.027357 -0.141996 2.379236 -6.809186 -5.68722 -2.679343 1.65107 -1.730817 -0.574338 -0.0 -0.0 2e-06 -4.597054 -4.08321 -5.168497 -0.075164 0.00173 12.630606 6.273612 -8.559623 -7.80692 -1.413685 1.247373 -0.344391 0.0 -0.0 -1e-06 
